<svg id="logo" width="50px" height="50px" viewBox="0 0 68 68">
	<path fill="#d3daff" d="M33.455,59.385l-21.27-12.281V22.543l21.27-12.28l21.271,12.28v24.561L33.455,59.385z M51.915,24.165l-18.46-10.657L14.996,24.165V45.48l18.459,10.658l18.46-10.658V24.165z"/>
	
	<path fill="#3f35d6" d="M46.086,12.658v29.244h13.646v0.379v6v0.08v0.27H38.809V10.504l0.918-1.591l6.365,3.646"/>
	<defs>
		<linearGradient id="SVGID_1_" gradientUnits="userSpaceOnUse" x1="7.5562" y1="48.1064" x2="48.1947" y2="15.198">
			<stop  offset="0" style="stop-color:#3f35d6"/>
			<stop  offset="1" style="stop-color:#29228a"/>
		</linearGradient>
	</defs>
	
	<path fill="url(#SVGID_1_)" d="M30.142,40.057c-3.249,5.628-6.676,9.096-10.281,10.406c-3.412,1.238-7.397,0.625-11.818-1.756v-7.07l1.945,1.124c2.793,1.612,5.214,1.968,7.263,1.067c2.049-0.902,4.241-3.375,6.576-7.418L39.701,8.913l6.357,3.646"/>
</svg>